<?xml version="1.0" encoding="UTF-8" standalone="no"?>
<!-- Created with Inkscape (http://www.inkscape.org/) -->

<svg
   xmlns:dc="http://purl.org/dc/elements/1.1/"
   xmlns:cc="http://creativecommons.org/ns#"
   xmlns:rdf="http://www.w3.org/1999/02/22-rdf-syntax-ns#"
   xmlns:svg="http://www.w3.org/2000/svg"
   xmlns="http://www.w3.org/2000/svg"
   xmlns:sodipodi="http://sodipodi.sourceforge.net/DTD/sodipodi-0.dtd"
   xmlns:inkscape="http://www.inkscape.org/namespaces/inkscape"
   id="svg3725"
   version="1.1"
   inkscape:version="0.91 r"
   width="495.99707"
   height="515.08307"
   viewBox="0 0 495.99707 515.08307"
   sodipodi:docname="logo-cuadrado.svg"
   inkscape:export-filename="/home/yaco/Proyectos/UALALA/Comunicacion/Grafica/Logos/logo-favicon.png"
   inkscape:export-xdpi="88"
   inkscape:export-ydpi="88">
  <metadata
     id="metadata3731">
    <rdf:RDF>
      <cc:Work
         rdf:about="">
        <dc:format>image/svg+xml</dc:format>
        <dc:type
           rdf:resource="http://purl.org/dc/dcmitype/StillImage" />
        <dc:title></dc:title>
      </cc:Work>
    </rdf:RDF>
  </metadata>
  <defs
     id="defs3729" />
  <sodipodi:namedview
     pagecolor="#ffffff"
     bordercolor="#666666"
     borderopacity="1"
     objecttolerance="10"
     gridtolerance="10"
     guidetolerance="10"
     inkscape:pageopacity="0"
     inkscape:pageshadow="2"
     inkscape:window-width="1080"
     inkscape:window-height="1902"
     id="namedview3727"
     showgrid="false"
     fit-margin-top="0"
     fit-margin-left="0"
     fit-margin-right="0"
     fit-margin-bottom="0"
     inkscape:zoom="0.70710678"
     inkscape:cx="187.92911"
     inkscape:cy="349.82321"
     inkscape:window-x="418"
     inkscape:window-y="-3"
     inkscape:window-maximized="1"
     inkscape:current-layer="svg3725">
    <inkscape:grid
       type="xygrid"
       id="grid4608"
       originx="232.23235"
       originy="289.10363" />
  </sodipodi:namedview>
  <path
     sodipodi:nodetypes="scssccscscscsssscscccssscsccsccss"
     inkscape:connector-curvature="0"
     id="path4610"
     d="m 238.14917,210.98278 c -0.12879,-0.0112 -0.2623,0.006 -0.4178,0.0429 -1.2375,0.29084 -1.67496,0.90598 -1.49907,2.10758 0.0858,0.58621 0.34796,1.41044 0.58259,1.83177 0.23462,0.42132 0.42729,0.8312 0.42818,0.91082 0.001,0.0796 -0.76301,0.6045 -1.69759,1.16637 -1.91349,1.15043 -2.62887,2.23931 -2.18676,3.32819 0.38478,0.94765 2.54314,1.22998 4.23208,0.55364 0.43545,-0.17439 0.48441,-0.007 0.48441,1.65599 0,1.44549 0.0955,1.8846 0.4364,2.00713 0.24003,0.0862 0.54828,0.43252 0.68509,0.76947 0.28532,0.70271 1.48753,0.85687 1.7469,0.22397 0.0876,-0.21383 0.34988,-0.3888 0.58302,-0.3888 0.23314,0 0.42386,-0.17494 0.42386,-0.38879 0,-0.21382 0.10246,-0.38878 0.22749,-0.38878 0.12504,0 0.25693,-0.60963 0.29324,-1.35469 0.0363,-0.74507 0.11803,-1.40365 0.18166,-1.46324 0.0636,-0.0596 0.67857,0.0933 1.36672,0.33939 0.78579,0.28101 1.63783,0.39472 2.29013,0.30616 0.57124,-0.0776 1.25489,-0.14525 1.51939,-0.15064 0.45618,-0.009 0.51168,-0.69876 0.23528,-2.92565 -0.0132,-0.10691 -0.18348,-0.19439 -0.37801,-0.19439 -0.19452,0 -0.56668,-0.23327 -0.82738,-0.51839 -0.26071,-0.28511 -0.65496,-0.51838 -0.87583,-0.51838 -0.7839,0 -0.69193,-0.47285 0.28416,-1.46121 0.54393,-0.55075 1.22395,-1.4273 1.51117,-1.94799 0.51799,-0.93901 0.51762,-0.95251 -0.0679,-1.64953 -0.52831,-0.62891 -0.7171,-0.68647 -1.79619,-0.54795 -1.13836,0.1461 -2.20611,0.68354 -3.6097,1.81677 -0.50617,0.40866 -0.68946,0.43815 -1.03803,0.16728 -0.23282,-0.18094 -0.42592,-0.46051 -0.42904,-0.62125 -0.003,-0.16075 -0.54034,-0.86434 -1.19372,-1.56366 -0.76478,-0.81858 -1.10836,-1.11076 -1.49475,-1.14411 z"
     style="fill:#f9f9f9;fill-opacity:1" />
  <path
     style="fill:#000000"
     d="m 290.99707,513.98417 c -3.78125,-0.51549 -12.5,-2.71481 -19.375,-4.8874 -6.875,-2.17258 -16.4375,-5.10749 -21.25,-6.52203 -13.24095,-3.89188 -22.02697,-7.51708 -22.74344,-9.38416 -0.35393,-0.92235 -1.1341,-1.37381 -1.7337,-1.00324 -1.7535,1.08373 -10.4109,-1.69072 -13.10355,-4.19929 -1.36028,-1.2673 -3.04783,-2.11266 -3.75012,-1.87856 -0.70229,0.23409 -6.31515,-2.10543 -12.47304,-5.19896 -15.69179,-7.88304 -19.38921,-10.16225 -18.35032,-11.31171 0.4973,-0.55023 0.21438,-0.60402 -0.62869,-0.1195 -1.73914,0.99939 -7.63139,-1.70401 -7.85744,-3.60505 -0.0817,-0.6875 -0.9555,-1.08471 -1.94167,-0.8827 -0.98617,0.20201 -1.79303,-0.21986 -1.79303,-0.9375 0,-0.71764 -0.70312,-1.16417 -1.5625,-0.9923 -0.93399,0.1868 -1.39477,-0.69312 -1.14554,-2.1875 0.33032,-1.98042 0.0922,-2.18399 -1.14553,-0.97945 -1.23328,1.20014 -2.17717,0.85733 -4.47948,-1.62691 -1.60432,-1.73109 -2.93484,-2.69659 -2.9567,-2.14554 -0.0219,0.55105 -0.86562,-0.09 -1.875,-1.42451 -1.00939,-1.33458 -1.83525,-1.93164 -1.83525,-1.32685 0,0.60479 -1.14691,-0.13145 -2.5487,-1.63609 -1.40177,-1.50464 -3.05137,-2.7357 -3.66576,-2.7357 -0.61439,0 -1.46503,-1.0963 -1.89029,-2.43621 -0.45605,-1.43688 -1.49572,-2.15897 -2.53455,-1.76034 -1.23775,0.47497 -1.61576,-0.0799 -1.27166,-1.86668 0.34901,-1.81228 -0.0289,-2.3436 -1.31561,-1.84982 -2.24569,0.86175 -5.7826,-1.90634 -4.69153,-3.67173 0.4424,-0.71582 0.24015,-0.95278 -0.44946,-0.52658 -1.71598,1.06053 -6.8945,-3.95334 -5.84203,-5.65629 0.50948,-0.82434 0.26843,-1.01175 -0.6061,-0.47126 -0.81202,0.50186 -1.78127,0.0392 -2.19912,-1.04968 -0.41093,-1.07089 -1.24501,-1.63936 -1.8535,-1.26329 -1.41114,0.87213 -11.29103,-9.42903 -10.41026,-10.85415 0.36213,-0.58593 -0.21455,-0.73035 -1.2815,-0.32092 -1.06697,0.40944 -1.93993,0.23615 -1.93993,-0.38508 0,-1.12243 -1.80474,-3.66777 -7.18597,-10.13481 -1.546037,-1.85799 -2.811667,-3.83324 -2.812497,-4.38944 -8.4e-4,-0.5562 -0.56403,-0.66362 -1.25153,-0.23872 -0.6875,0.4249 -1.25,0.25307 -1.25,-0.38184 0,-0.63491 -1.64576,-3.03936 -3.65725,-5.34321 -2.01149,-2.30385 -3.38454,-4.63008 -3.05122,-5.16939 0.33331,-0.53931 0.0103,-0.98056 -0.71775,-0.98056 -0.72808,0 -1.32378,-0.5957 -1.32378,-1.32377 0,-0.72808 0.70313,-0.94418 1.5625,-0.48024 0.85938,0.46395 -0.20292,-0.76848 -2.36068,-2.73873 -3.64573,-3.32893 -6.31993,-8.45356 -5.66851,-10.86267 0.15325,-0.56673 -0.22263,-0.72061 -0.83528,-0.34198 -1.39652,0.86309 -5.50606,-3.52792 -4.36742,-4.66655 0.45983,-0.45984 0.11963,-0.83606 -0.75601,-0.83606 -0.9253,0 -1.2803,-0.81245 -0.84765,-1.93993 0.42687,-1.1124 0.21731,-1.61415 -0.49127,-1.17622 -0.67962,0.42002 -1.23568,-0.11325 -1.23568,-1.18508 0,-1.07182 -0.5625,-1.94877 -1.25,-1.94877 -0.6875,0 -1.25,-1.40625 -1.25,-3.125 0,-1.71875 -0.65625,-3.125 -1.45833,-3.125 -0.80209,0 -1.08211,-0.37622 -0.62228,-0.83606 0.45984,-0.45984 -0.0961,-1.86609 -1.2354,-3.125 -1.1393,-1.25891 -1.66285,-2.28894 -1.16344,-2.28894 0.49941,0 -0.008,-0.91628 -1.12815,-2.03617 -1.1199,-1.1199 -1.74648,-2.79112 -1.3924,-3.71383 0.35408,-0.92271 -0.2275,-2.54893 -1.29238,-3.61381 -1.06489,-1.06489 -2.05242,-2.62804 -2.19451,-3.47368 -0.14209,-0.84564 -0.97999,-2.85131 -1.862,-4.45707 -0.88201,-1.60575 -1.29166,-3.23155 -0.91032,-3.61289 0.38133,-0.38134 -0.0961,-2.16129 -1.06102,-3.95545 -2.58097,-4.79912 -4.50464,-11.50469 -3.68219,-12.83544 0.39471,-0.63865 0.0266,-1.99387 -0.81809,-3.01162 -0.84466,-1.01775 -1.17921,-2.20698 -0.74346,-2.64274 0.43575,-0.43575 0.21342,-1.48976 -0.49409,-2.34225 -1.82589,-2.20007 -2.76821,-6.50815 -2.92391,-13.36755 -0.0741,-3.26562 -0.52126,-5.9375 -0.99363,-5.9375 -0.47236,0 -0.61476,-1.34604 -0.31644,-2.9912 0.61208,-3.37544 -1.50257,-4.71891 -5.964,-3.78904 -1.57793,0.32889 -9.90021,0.93327 -18.49396,1.34305 -14.4134298,0.68732 -15.8641698,0.5504 -18.7094598,-1.7656 -2.59208,-2.10988 -2.82772,-2.82002 -1.47613,-4.4486 1.41358,-1.70325 5.31277,-3.09233 11.4355898,-4.07391 1.03125,-0.16533 3.28125,-0.69108 5,-1.16833 1.71875,-0.47725 4.10938,-0.92946 5.3125,-1.00491 1.20313,-0.0755 2.1875,-0.64475 2.1875,-1.26511 0,-0.62036 1.09803,-0.84079 2.44007,-0.48984 1.34203,0.35095 2.63423,0.0556 2.87156,-0.6564 0.23732,-0.71197 2.51883,-1.42122 5.07002,-1.57611 5.5658,-0.33791 6.28815,-1.50739 2.26197,-3.66214 -1.87696,-1.00451 -2.46533,-1.9145 -1.58833,-2.45652 0.76618,-0.47353 2.57784,-0.22686 4.02594,0.54813 3.47529,1.85992 4.02591,1.08872 4.02591,-5.63871 0,-3.11012 0.42948,-5.65476 0.95441,-5.65476 0.52492,0 0.67524,-1.0675 0.33405,-2.37221 -0.34119,-1.30471 -0.006,-3.52058 0.74541,-4.92414 1.0032,-1.8745 0.98276,-2.78862 -0.077,-3.44359 -1.00218,-0.61938 -0.73941,-1.40596 0.86053,-2.57586 1.3127,-0.95988 1.62888,-1.6842 0.73517,-1.6842 -1.91153,0 -0.7511,-14.65626 1.36202,-17.20242 0.73398,-0.8844 1.01795,-1.92456 0.63104,-2.31147 -0.81324,-0.81324 2.28378,-12.49712 4.22238,-15.92941 0.99455,-1.76085 0.9402,-2.09013 -0.22602,-1.36936 -0.98423,0.60828 -1.21523,0.43087 -0.64351,-0.4942 0.49056,-0.79373 1.80998,-1.44314 2.93205,-1.44314 1.85023,0 1.84383,-0.14545 -0.0687,-1.5625 -1.86637,-1.38285 -1.90763,-1.94758 -0.35889,-4.91164 0.96247,-1.84202 1.38674,-3.71234 0.94283,-4.15625 -0.44391,-0.44391 0.19723,-1.36917 1.42476,-2.05614 1.42851,-0.79943 1.96746,-2.08211 1.4973,-3.56347 -0.47017,-1.48136 0.0688,-2.76404 1.4973,-3.56348 1.22753,-0.68696 1.82343,-1.65746 1.32421,-2.15667 -0.49921,-0.49921 0.068,-1.70811 1.26042,-2.68645 1.2918,-1.05985 1.41025,-1.39174 0.29307,-0.82115 -1.63454,0.83484 -1.64747,0.67735 -0.10083,-1.22794 0.9758,-1.20207 1.96771,-3.95339 2.20425,-6.11402 0.23654,-2.16065 0.99821,-4.27958 1.6926,-4.70874 0.6944,-0.42916 1.48724,-1.94704 1.76186,-3.37306 0.27463,-1.42603 1.94895,-4.88913 3.72072,-7.69579 1.77177,-2.80666 3.2214,-5.67194 3.2214,-6.36726 0,-0.69534 1.06887,-1.93178 2.37528,-2.74764 1.30639,-0.81586 2.13635,-2.106 1.84433,-2.86698 -0.29201,-0.76098 0.74849,-2.75923 2.31223,-4.44057 1.56374,-1.68133 2.70254,-3.4897 2.53066,-4.01861 -0.17187,-0.5289 0.2832,-0.96164 1.01128,-0.96164 0.72807,0 1.01255,-0.50356 0.63217,-1.11903 -0.38037,-0.61545 0.18458,-1.45523 1.25546,-1.86616 1.07088,-0.41094 1.6506,-1.22681 1.28829,-1.81305 -0.36232,-0.58624 1.85203,-3.76206 4.92078,-7.05737 3.06873,-3.29532 5.57952,-6.3546 5.57952,-6.79843 0,-0.44381 1.663157,-1.7894 3.695907,-2.99017 2.03275,-1.200777 3.44282,-2.868927 3.13347,-3.707017 -0.30934,-0.83807 1.58061,-3.77377 4.1999,-6.52377 6.37323,-6.6913 25.54646,-23.91165 25.74747,-23.125 0.29531,1.15569 4.23613,-3.11075 4.04109,-4.375 -0.106,-0.6875 0.52594,-1.10416 1.40445,-0.9259 0.8785,0.17825 1.94409,-0.57968 2.36796,-1.68429 0.42388,-1.1046 3.22073,-3.05857 6.21521,-4.34217 2.9945,-1.28359 5.44454,-2.78838 5.44454,-3.34397 0,-0.55558 2.10938,-2.11707 4.6875,-3.46995 2.57813,-1.35288 5.01936,-2.91522 5.42498,-3.47187 0.4056,-0.55665 1.95247,-1.10361 3.4375,-1.21548 1.48504,-0.11187 2.70005,-0.63173 2.70005,-1.15527 0,-0.52355 1.6875,-1.82454 3.75,-2.8911 2.0625,-1.06656 3.75,-1.60333 3.75,-1.19281 0,0.41051 0.91628,-0.1699 2.03618,-1.28979 1.1199,-1.1199 2.83661,-1.72903 3.81492,-1.3536 0.98531,0.3781 1.43809,0.13137 1.01505,-0.55311 -0.42002,-0.67963 0.0731,-1.23569 1.09579,-1.23569 1.02272,0 2.70017,-0.84068 3.72766,-1.86818 1.0275,-1.0275 2.8958,-2.06543 4.15179,-2.30652 1.25599,-0.2411 5.0351,-1.66456 8.39804,-3.16325 3.36292,-1.49868 6.40492,-2.43438 6.75998,-2.07931 0.35507,0.35506 1.25983,0.13911 2.01058,-0.4799 2.48974,-2.05282 17.39414,-6.53874 19.71145,-5.93274 1.25321,0.32771 2.27856,0.20297 2.27856,-0.27721 0,-0.48018 1.54688,-0.90219 3.4375,-0.9378 1.89063,-0.0356 5.125,-0.46083 7.1875,-0.94492 6.11569,-1.43543 9.81066,-2.04523 13.125,-2.16611 6.60544,-0.2409 7.37194,0.0756 6.84243,2.82508 -0.28272,1.46802 -0.10975,2.2649 0.38427,1.77082 0.49406,-0.49406 0.8983,-1.54009 0.8983,-2.3245 0,-0.78442 1.96875,-1.56966 4.375,-1.745 2.40625,-0.17532 5.35938,-0.559 6.5625,-0.8526 1.20313,-0.2936 2.19611,0.11663 2.20664,0.91166 0.0127,0.95963 0.36384,0.90215 1.04465,-0.17102 0.62001,-0.97733 2.46595,-1.37986 4.66836,-1.01803 2.00356,0.32917 6.31473,0.97984 9.58035,1.44594 3.26563,0.4661 5.9375,1.3541 5.9375,1.97335 0,0.89656 7.67176,0.39186 8.18491,-0.53845 3.25392,-5.89931 12.4612,-15.8965001 15.12764,-16.42549014 1.27185,-0.25231 2.87495,-0.60436 3.56245,-0.78233 3.41219,-0.8833 7.98702,1.91011004 10.52568,6.42702004 1.51761,2.70021 2.37317,4.9094901 1.90125,4.9094901 -0.47193,0 -0.16374,0.83659 0.68486,1.85909 0.8486,1.02248 1.22329,2.69197 0.83265,3.70996 -0.39064,1.01799 -0.1454,2.19999 0.54496,2.62665 0.69038,0.42667 1.16915,1.71031 1.06396,2.85254 -0.39565,4.29592 1.61024,7.56651 5.11239,8.33571 1.94507,0.42721 4.20675,1.58434 5.02594,2.5714 0.81919,0.98706 2.2643,1.79465 3.21136,1.79465 0.94708,0 1.72195,0.5957 1.72195,1.32377 0,0.72808 0.46221,1.03812 1.02713,0.68898 0.56492,-0.34915 2.53367,0.1468 4.375,1.1021 1.84133,0.95529 3.36658,1.34837 3.38946,0.87352 0.0229,-0.47486 1.07804,0.37833 2.34482,1.89598 1.26678,1.51764 2.64108,2.4215 3.05399,2.00859 0.41291,-0.41292 1.10419,0.17027 1.53616,1.29597 0.43197,1.1257 1.28897,1.73551 1.90442,1.35514 0.61546,-0.38038 1.11902,0.2791 1.11902,1.46551 0,1.18641 0.35256,1.80454 0.78348,1.37363 1.17722,-1.17723 8.16186,2.78948 7.31747,4.15572 -0.40194,0.65035 0.0986,0.86415 1.11248,0.47513 2.06292,-0.79163 7.297,3.75473 5.99491,5.2072 -0.45834,0.51126 -0.20281,0.56981 0.56781,0.13011 1.69638,-0.9679 7.23537,3.5597 6.26861,5.12397 -0.37664,0.6094 0.1095,1.10802 1.08024,1.10802 0.97076,0 1.41142,-0.60938 0.97925,-1.35418 -0.84026,-1.44804 6.3105,4.88408 12.737,11.27883 2.14625,2.13565 5.14122,4.54606 6.65551,5.35648 1.51428,0.81042 2.75324,2.11752 2.75324,2.90465 0,0.78714 2.59615,3.8488 5.76921,6.8037 3.64083,3.3905 5.50558,6.05959 5.0546,7.23484 -0.39305,1.02425 -0.16276,2.20335 0.51175,2.62021 0.67451,0.416877 1.14583,0.29427 1.04739,-0.27246 -0.44505,-2.56195 0.27075,-2.93029 2.11346,-1.08757 1.09803,1.09802 1.68076,2.818947 1.29499,3.824277 -0.38579,1.00534 -0.27849,1.69402 0.23844,1.53038 1.18795,-0.37604 7.72016,6.06941 7.72016,7.61762 0,0.63458 0.83756,1.84888 1.86124,2.69845 1.02367,0.84959 1.52958,2.08132 1.12422,2.73719 -0.40535,0.65589 0.35495,1.47806 1.68955,1.82706 1.3346,0.34902 3.40064,2.8424 4.5912,5.54087 1.19056,2.69847 2.74664,4.90631 3.45796,4.90631 0.71132,0 0.97282,0.83517 0.58112,1.85594 -0.42334,1.10317 0.32222,2.40952 1.83821,3.22086 1.50659,0.8063 2.26079,2.11965 1.84276,3.20899 -0.39786,1.03681 -0.1667,1.50975 0.52805,1.08036 1.20606,-0.74538 1.74164,0.909 1.32445,4.09112 -0.11412,0.87027 0.50904,1.43277 1.38473,1.25 0.87568,-0.18275 1.78526,0.93335 2.02127,2.48023 0.23601,1.54687 0.95249,2.8125 1.59218,2.8125 0.63968,0 1.09645,0.42187 1.01503,0.9375 -0.50623,3.20612 0.33409,7.84505 1.31165,7.24089 1.58617,-0.9803 2.41614,0.64083 3.08372,6.0232 0.36766,2.96422 0.0528,4.55482 -0.9041,4.56683 -0.80753,0.01 -0.11438,0.71327 1.54041,1.5625 3.13981,1.6114 6.916,10.18372 5.7847,13.13185 -0.35184,0.91689 -0.0836,1.32342 0.59596,0.90338 0.67963,-0.42003 1.30058,0.25387 1.37988,1.49757 0.21616,3.39014 0.48346,4.44742 2.05731,8.13745 0.792,1.85689 1.57437,5.65377 1.73862,8.4375 0.16425,2.78373 0.68557,5.06133 1.15848,5.06133 0.4729,0 1.15401,1.125 1.51359,2.5 0.35957,1.375 0.0838,2.5 -0.61295,2.5 -0.71278,0 -0.87674,0.95659 -0.37494,2.1875 1.1388,2.79344 2.34976,9.94302 2.43477,14.375 0.0362,1.89062 0.521,3.4375 1.0772,3.4375 0.5562,0 0.65795,0.57167 0.22613,1.27039 -0.43183,0.69871 -1.4494,0.93825 -2.26128,0.5323 -0.81186,-0.40594 -0.38423,0.14738 0.95029,1.22961 1.76458,1.43099 1.93506,1.97292 0.625,1.98684 -1.21284,0.0129 -1.34164,0.3192 -0.3942,0.9375 0.85513,0.55806 1.34554,4.47395 1.25,9.98123 -0.087,5.01238 0.40145,9.29952 1.09279,9.59234 0.83334,0.35298 0.83334,0.87369 0,1.56213 -0.6875,0.56796 -1.37394,6.65766 -1.52541,13.53266 -0.37904,17.20289 -0.57368,19.36595 -1.81148,20.13095 -0.59339,0.36674 -0.75527,1.19042 -0.35972,1.83042 0.39553,0.63999 0.0955,1.16363 -0.66673,1.16363 -0.88574,0 -0.99396,0.70034 -0.29989,1.94057 1.16742,2.08605 0.53754,9.30943 -0.81178,9.30943 -0.44895,0 -0.93009,2.55662 -1.0692,5.68139 -0.26592,5.97262 -1.14885,8.48311 -2.65593,7.55168 -0.49631,-0.30673 -0.68359,1.31648 -0.41616,3.60715 0.35186,3.01397 -0.23846,4.88954 -2.13624,6.78732 -1.44235,1.44235 -2.09226,2.62246 -1.44424,2.62246 1.62567,0 0.67378,4.1692 -1.82131,7.97717 -1.13982,1.73959 -1.70947,3.75013 -1.26589,4.46785 0.44359,0.71774 0.22848,1.30498 -0.47802,1.30498 -0.7065,0 -0.96076,0.84375 -0.56504,1.875 0.39574,1.03125 0.0636,1.875 -0.738,1.875 -0.80162,0 -1.10986,0.5625 -0.68496,1.25 0.4249,0.6875 -0.17328,1.25 -1.32929,1.25 -1.72656,0 -1.82399,0.33476 -0.54571,1.875 1.07512,1.29545 1.12244,1.875 0.15305,1.875 -0.77168,0 -1.2874,0.42187 -1.14605,0.9375 0.24604,0.8975 -1.60711,4.71366 -6.64249,13.67871 -1.27699,2.27359 -1.98129,4.13379 -1.5651,4.13379 0.41619,0 0.0616,0.83756 -0.78799,1.86124 -0.84958,1.02367 -2.13036,1.49926 -2.8462,1.05686 -0.71582,-0.4424 -0.9466,-0.23014 -0.51283,0.4717 0.43376,0.70185 -0.28514,2.24786 -1.59757,3.43559 -1.31242,1.18772 -2.15571,2.80977 -1.87397,3.60456 0.28174,0.79477 -2.00101,4.25755 -5.07278,7.69505 -3.07176,3.4375 -5.5902,6.67187 -5.59655,7.1875 -0.006,0.51562 -0.88847,0.9375 -1.9603,0.9375 -1.07182,0 -1.62615,0.522 -1.23185,1.16 0.39432,0.63801 -0.40481,1.51604 -1.77583,1.95117 -1.37102,0.43515 -2.36355,1.46003 -2.20565,2.2775 0.15791,0.81748 -0.69122,1.40922 -1.88694,1.31495 -1.19573,-0.0942 -1.90518,0.26368 -1.57656,0.79539 0.32862,0.53173 -0.53733,1.26353 -1.92433,1.62624 -1.387,0.3627 -2.36505,1.41102 -2.17344,2.32961 0.1916,0.91858 -0.35475,1.52951 -1.21412,1.35764 -0.85938,-0.17188 -1.5625,0.61842 -1.5625,1.75624 0,1.82787 -0.31225,1.79148 -2.68189,-0.3125 -2.6553,-2.35763 -2.66827,-2.35525 -1.3085,0.23976 1.58276,3.0206 -0.19339,5.73875 -3.03694,4.64759 -1.02315,-0.39263 -1.72267,0.15462 -1.72267,1.34767 0,1.10481 -0.75658,2.00874 -1.68126,2.00874 -0.9247,0 -2.7025,1.12845 -3.95068,2.50766 -1.24817,1.37921 -2.50722,2.26984 -2.7979,1.97916 -0.29067,-0.29066 -1.53984,0.40902 -2.77592,1.55484 -3.60513,3.34191 -7.97142,6.45834 -9.04848,6.45834 -1.55642,0 -1.07132,2.75794 1.25178,7.11659 6.18011,11.59527 9.38516,18.51008 10.16025,21.92046 0.114,0.50164 1.58763,4.0333 3.27475,7.84815 3.50485,7.92509 3.9008,11.8648 1.19246,11.8648 -2.66164,0 -9.375,-7.42703 -9.375,-10.3716 0,-0.94991 -1.37955,-2.35568 -3.06568,-3.12393 -1.97967,-0.902 -4.79793,-4.86831 -7.95572,-11.19655 -8.18753,-16.40792 -10.26168,-18.62362 -13.47266,-14.39213 -0.92204,1.21506 -1.69432,1.74716 -1.71619,1.18242 -0.0219,-0.56472 -0.92885,-0.13769 -2.01553,0.94899 -1.08667,1.08667 -2.57983,1.60245 -3.31813,1.14615 -0.7383,-0.45629 -1.00194,-0.27881 -0.58588,0.39439 0.60208,0.97418 -10.0943,7.37488 -11.32035,6.77408 -0.17884,-0.0876 -2.98686,1.25762 -6.24006,2.98943 -3.2532,1.73181 -6.62251,3.14875 -7.48735,3.14875 -0.86485,0 -1.57245,0.43917 -1.57245,0.97595 0,1.31999 -7.59426,4.11334 -8.93318,3.28584 -0.58675,-0.36263 -1.06682,-0.0636 -1.06682,0.66443 0,0.72808 -1.07813,1.32378 -2.39584,1.32378 -1.3177,0 -2.58332,0.52794 -2.8125,1.1732 -0.22916,0.64526 -1.82291,1.36264 -3.54166,1.59415 -1.71875,0.23152 -3.82813,0.86177 -4.6875,1.40057 -0.85938,0.53879 -2.125,0.63198 -2.8125,0.20708 -0.6875,-0.4249 -1.25,-0.26749 -1.25,0.3498 0,1.56145 -19.54832,4.45007 -25.97051,3.83761 -5.01323,-0.47809 -5.27949,-0.33519 -5.27949,2.83333 0,5.5775 -6.50276,6.1077 -8.29457,0.67628 -0.9929,-3.00973 -0.91763,-19.09091 0.14203,-30.34568 0.38069,-4.04324 0.95788,-12.97634 1.28264,-19.85134 0.32476,-6.875 0.94453,-17.5625 1.37724,-23.75 0.43271,-6.1875 0.75927,-13.35938 0.72567,-15.9375 -0.0336,-2.57813 0.53162,-4.6875 1.25602,-4.6875 0.88546,0 0.86085,-0.54974 -0.0751,-1.67751 -0.76572,-0.92263 -0.97522,-2.09638 -0.46555,-2.60834 1.65702,-1.66449 -18.06487,7.69134 -25.92914,12.30045 -4.20924,2.46698 -8.18552,4.4854 -8.83619,4.4854 -0.65067,0 -1.18303,0.53399 -1.18303,1.18664 0,2.11827 -8.01386,8.77187 -12.26587,10.18387 -3.45904,1.14868 -4.53477,1.01864 -6.53303,-0.78976 -1.31567,-1.19067 -2.09096,-2.65219 -1.72285,-3.24781 0.36811,-0.59561 0.0952,-1.08294 -0.6063,-1.08294 -2.3362,0 -3.93682,-9.24856 -2.72409,-15.74001 0.82123,-4.39583 0.73259,-6.37779 -0.31506,-7.04428 -1.00766,-0.64106 -0.87884,-0.93925 0.4172,-0.96571 1.57083,-0.0321 1.5917,-0.21766 0.12865,-1.14404 -1.20429,-0.76253 -1.52531,-2.46793 -1.03421,-5.49424 0.39169,-2.41364 0.37432,-4.72629 -0.0386,-5.13919 -0.7546,-0.75459 -1.86273,-10.34373 -2.06972,-17.91003 -0.0611,-2.23438 -0.45621,-4.0625 -0.87796,-4.0625 -0.42177,0 -0.68962,-1.26562 -0.59523,-2.8125 0.0944,-1.54688 -0.51362,-4.17359 -1.35112,-5.83712 -1.0397,-2.06518 -1.13433,-3.75039 -0.2983,-5.3125 0.76736,-1.43384 0.77847,-2.28788 0.0298,-2.28788 -1.1336,0 -1.78038,-2.0154 -3.40975,-10.625 -1.6237,-8.57967 -1.84183,-10.13004 -1.80264,-12.8125 0.0226,-1.54687 -0.44058,-2.8125 -1.02928,-2.8125 -0.5887,0 -1.64843,-2.67187 -2.35498,-5.9375 -0.70654,-3.26562 -2.02644,-7.75777 -2.93309,-9.98254 -1.9628,-4.81633 -0.0523,-8.09964 3.43375,-5.90076 3.01482,1.9017 12.11935,20.16091 12.11935,24.30545 0,2.01178 0.75,3.94558 1.66667,4.29732 0.91667,0.35177 1.66667,1.95097 1.66667,3.5538 0,1.60283 0.48276,3.4486 1.07281,4.10173 0.59004,0.65313 1.79924,4.84375 2.68711,9.3125 0.88786,4.46875 2.23323,8.9196 2.98969,9.89077 1.01707,1.30577 0.97124,1.90182 -0.17595,2.28795 -1.16578,0.39239 -1.0881,0.98541 0.3125,2.38602 1.75757,1.75757 2.12692,3.39456 2.28396,10.12276 0.0361,1.54687 0.4251,2.8125 0.86443,2.8125 0.43933,0 0.84365,0.70312 0.8985,1.5625 0.0549,0.85937 0.50651,4.09375 1.00371,7.1875 0.96974,6.03413 1.40012,9.35839 1.65371,12.77325 0.13534,1.82255 1.24924,1.5154 7.34703,-2.02588 3.95312,-2.29576 9.4375,-4.92576 12.1875,-5.84442 2.75,-0.91867 5.98437,-2.48484 7.1875,-3.48036 1.20312,-0.99554 2.19611,-1.301 2.20663,-0.67883 0.01,0.62219 0.4324,0.55321 0.9375,-0.15326 1.40555,-1.96593 11.7721,-6.24166 14.15443,-5.83808 1.77324,0.30042 2.04296,-0.55115 1.68585,-5.3224 -0.28568,-3.81675 0.0675,-5.6863 1.07647,-5.69916 0.9573,-0.0125 0.84902,-0.43206 -0.29876,-1.15829 -1.40894,-0.89147 -1.5336,-2.04235 -0.57339,-5.29336 0.67485,-2.28481 1.10913,-8.65199 0.96508,-14.14927 -0.14416,-5.50132 0.32294,-10.69978 1.03894,-11.5625 0.91803,-1.10617 0.86625,-1.56744 -0.17597,-1.56744 -0.81226,0 -1.13096,-0.55964 -0.70822,-1.24362 0.80219,-1.29798 1.81614,-19.46463 2.25025,-40.31717 0.13952,-6.70217 0.66164,-12.18655 1.16025,-12.1875 0.49861,-9.3e-4 0.42537,-1.26734 -0.16275,-2.81421 -1.69076,-4.44705 -1.68331,-4.96899 0.0869,-6.0911 0.9181,-0.58196 1.0811,-1.06674 0.36225,-1.07726 -1.5208,-0.0222 -2.25451,-7.68607 -1.19686,-12.5015 0.58735,-2.67419 1.44131,-3.31309 4.42827,-3.31309 2.30944,0 3.7006,0.64716 3.7006,1.7215 0,0.94681 0.42188,1.47898 0.9375,1.18258 0.51563,-0.29642 2.0625,0.60056 3.4375,1.99326 1.375,1.39271 1.65625,2.07252 0.625,1.5107 -1.03125,-0.56183 -0.4343,0.3515 1.32656,2.02961 2.95843,2.8194 6.42594,9.14729 11.90899,21.7328 1.19808,2.75 2.14068,5.28125 2.09465,5.625 -0.046,0.34375 0.54286,1.75 1.30863,3.125 0.76577,1.375 1.2728,2.92187 1.12673,3.4375 -0.14606,0.51562 0.20319,0.9375 0.7761,0.9375 0.57293,0 1.10247,0.70312 1.17675,1.5625 0.23882,2.76227 0.95189,5.27249 1.95302,6.875 0.53686,0.85937 0.6918,2.02254 0.3443,2.58481 -0.3475,0.56227 0.43293,1.78973 1.73428,2.72769 1.30135,0.93796 2.04291,2.22831 1.6479,2.86745 -0.395,0.63913 -0.2128,1.52105 0.40489,1.9598 1.95904,1.39154 4.15862,7.56884 3.39948,9.54711 -0.52461,1.36713 -0.1627,1.68605 1.28355,1.13108 1.48247,-0.56888 2.05325,0.005 2.1622,2.17332 0.0814,1.62044 0.0675,3.40993 -0.031,3.97665 -0.0985,0.56673 0.34265,0.70803 0.98021,0.31399 0.94506,-0.58409 2.99775,3.17374 4.55739,8.3431 0.15556,0.51563 0.41978,1.35937 0.58713,1.875 0.16734,0.51563 0.23766,1.35937 0.15625,1.875 -0.0814,0.51563 0.37657,0.9375 1.01773,0.9375 1.14953,0 2.64134,3.32299 2.46253,5.48525 -0.0505,0.61062 0.516,1.48589 1.25888,1.94501 0.74288,0.45914 1.47499,2.33662 1.6269,4.17219 0.15193,1.83558 1.13903,3.68915 2.19358,4.11906 2.7956,1.13969 12.94961,1.35354 14.46846,0.30472 2.66721,-1.84182 9.32326,-2.36298 9.34303,-0.73155 0.0149,1.22597 0.25261,1.21215 1.06037,-0.0616 0.60296,-0.95085 3.75168,-1.73881 7.48085,-1.8721 3.54195,-0.12658 6.43979,-0.5632 6.43979,-0.97026 0,-0.40705 2.39062,-0.83308 5.3125,-0.94671 5.42116,-0.21085 10.97044,-0.89063 18.00929,-2.20614 3.15913,-0.59041 4.06568,-0.27614 4.5425,1.57477 0.53201,2.06513 0.61121,2.07848 0.74071,0.12488 0.0975,-1.47079 1.27126,-2.24458 3.5825,-2.36173 1.89062,-0.0958 5.54687,-0.28402 8.125,-0.41823 2.57812,-0.13423 4.6875,0.33792 4.6875,1.04921 0,0.84607 0.47266,0.82059 1.36695,-0.0737 1.72632,-1.72633 10.06172,0.3565 11.50766,2.8755 0.54979,0.9578 1.87559,1.74145 2.94624,1.74145 1.24572,0 1.67859,0.69847 1.2022,1.93992 -0.42686,1.1124 -0.21731,1.61415 0.49126,1.17623 2.30114,-1.42218 1.25284,2.73086 -1.26431,5.00885 -1.91702,1.73488 -2.50928,1.85294 -2.53975,0.50623 -0.0319,-1.40632 -0.34315,-1.36722 -1.5625,0.19623 -2.02022,2.59033 -4.98425,3.61415 -12.99061,4.48719 -4.60865,0.50254 -6.65714,0.28302 -6.65714,-0.71335 0,-1.0806 -0.66261,-1.08464 -2.65896,-0.0162 -2.07399,1.10996 -2.89479,1.05089 -3.73086,-0.26852 -0.86517,-1.36532 -1.07559,-1.32097 -1.09104,0.22994 -0.021,2.11396 -4.53585,2.99674 -5.69923,1.11438 -0.41506,-0.6716 -1.50919,-0.40018 -2.5393,0.62993 -0.99548,0.99549 -2.92837,1.5946 -4.2953,1.33137 -1.36692,-0.26325 -2.48531,0.014 -2.48531,0.61598 0,0.60206 -1.60644,1.04895 -3.56986,0.99313 -1.96343,-0.0559 -4.21343,0.29625 -5,0.78238 -0.78658,0.48613 -1.43014,0.28341 -1.43014,-0.45049 0,-0.8674 -0.76551,-0.93944 -2.1875,-0.20584 -4.10756,2.11908 -20.66809,4.08984 -21.60662,2.57128 -0.55333,-0.8953 -1.16553,-0.58673 -1.72417,0.86905 -0.71022,1.8508 -1.06202,1.94041 -1.95368,0.49768 -0.90018,-1.45651 -1.42685,-1.47795 -3.05775,-0.12437 -2.55738,2.12242 -2.48412,3.34652 0.44661,7.46234 1.32929,1.86682 2.79652,4.90677 3.26051,6.75546 0.46399,1.8487 1.25485,3.36126 1.75746,3.36126 1.37068,0 3.95429,6.26359 3.13225,7.59368 -0.39306,0.63597 -0.15193,1.15632 0.53582,1.15632 1.37442,0 9.71176,14.96086 9.20957,16.52604 -0.17187,0.53567 0.19498,0.97396 0.81521,0.97396 0.62025,0 1.81252,1.82812 2.64949,4.0625 0.83696,2.23438 2.2318,5.9901 3.09963,8.34604 1.0509,2.85296 2.44275,4.34726 4.16753,4.47434 1.42433,0.10487 2.35217,-0.19354 2.06187,-0.66327 -0.29032,-0.46972 0.86077,-1.48673 2.55797,-2.26002 1.69719,-0.77325 3.0858,-1.9805 3.0858,-2.68274 0,-0.70224 0.86931,-1.2768 1.93181,-1.2768 1.0625,0 3.32529,-1.39346 5.02842,-3.09659 1.70312,-1.70312 3.50568,-3.25 4.00568,-3.4375 0.5,-0.1875 0.76847,-0.76279 0.59659,-1.27841 -0.28583,-0.85746 1.5516,-1.41308 3.67382,-1.11091 0.47373,0.0674 1.21477,-0.99095 1.64674,-2.35198 0.43198,-1.36103 1.45063,-2.47971 2.26368,-2.48595 0.81303,-0.006 2.82908,-1.72122 4.4801,-3.81109 1.651,-2.08986 3.75362,-3.51125 4.6725,-3.15863 0.91887,0.3526 1.61081,0.23946 1.53764,-0.25143 -0.34813,-2.33559 0.42575,-3.93772 3.60052,-7.45415 5.21789,-5.77941 11.08285,-14.15529 13.52989,-19.32232 1.20702,-2.54869 2.65795,-4.34759 3.22427,-3.99758 0.56634,0.35001 0.69472,-0.23659 0.28529,-1.30353 -0.40945,-1.0671 -0.1293,-1.94006 0.62253,-1.94006 0.75182,0 2.16086,-1.90009 3.1312,-4.2224 0.97032,-2.32233 2.33131,-4.57289 3.02442,-5.00125 0.6931,-0.42836 0.96614,-1.90328 0.60675,-3.2776 -0.35939,-1.37431 -0.16596,-2.49915 0.42985,-2.49964 0.59582,-4.7e-4 1.17124,-1.51638 1.27873,-3.36866 0.1075,-1.85229 1.09186,-4.02327 2.1875,-4.82442 1.09564,-0.80116 1.99206,-2.94151 1.99206,-4.75633 0,-1.81484 0.45411,-3.2997 1.00914,-3.2997 0.55502,0 0.89127,-1.70232 0.74723,-3.78295 -0.14405,-2.08062 0.48858,-4.53344 1.40584,-5.45069 0.91726,-0.91726 1.5025,-2.73056 1.30055,-4.02955 -0.20196,-1.299 0.11463,-3.65635 0.70351,-5.23857 0.58889,-1.58221 1.37967,-4.67596 1.75728,-6.875 0.37761,-2.19903 0.97327,-5.67123 1.32371,-7.716 0.35043,-2.04478 1.31003,-4.14554 2.13244,-4.66837 0.82241,-0.52282 0.9328,-0.96782 0.2453,-0.98887 -0.6875,-0.021 -0.40625,-0.59216 0.625,-1.26914 1.33416,-0.87582 1.46425,-1.50127 0.45099,-2.16836 -0.93294,-0.6142 -1.2146,-3.73941 -0.81677,-9.0625 0.33399,-4.46875 0.67404,-12.44271 0.75567,-17.71993 0.0816,-5.27721 0.5898,-9.32213 1.12926,-8.98872 0.53947,0.3334 0.98085,0.0105 0.98085,-0.71758 0,-0.72807 -0.53184,-1.32377 -1.18186,-1.32377 -0.65003,0 -1.01125,-2.25 -0.80274,-5 0.20852,-2.75 0.0373,-4.99996 -0.38064,-4.99992 -0.41787,3e-5 -0.73921,-2.81247 -0.7141,-6.25 0.0251,-3.43754 -0.32366,-6.25008 -0.77505,-6.25008 -0.45139,0 -0.71838,-2.84471 -0.59335,-6.32159 0.12504,-3.47687 -0.2385,-6.60949 -0.80785,-6.96137 -0.56935,-0.35188 -0.71157,-1.16341 -0.31602,-1.80341 0.39554,-0.63999 0.19661,-1.16363 -0.44205,-1.16363 -0.63866,0 -1.49221,-2.39062 -1.89678,-5.3125 -0.40456,-2.92187 -0.89959,-6.4375 -1.10006,-7.8125 -0.20047,-1.375 -0.78365,-2.81276 -1.29594,-3.19503 -0.51228,-0.38226 -1.05685,-2.21038 -1.21012,-4.0625 -0.15329,-1.85211 -0.65754,-3.36747 -1.12056,-3.36747 -0.92468,0 -2.61581,-5.24453 -3.13756,-9.73016 -0.42056,-3.61565 -4.42089,-12.76984 -5.58037,-12.76984 -0.48066,0 -1.23979,-1.54688 -1.68694,-3.4375 -1.13516,-4.7996 -8.25186,-18.13666 -10.61752,-19.8978 -1.07885,-0.80316 -1.54932,-1.87255 -1.04545,-2.3764 0.50386,-0.50386 0.0559,-1.5451 -0.99544,-2.31386 -1.05134,-0.76877 -2.00311,-2.61353 -2.11505,-4.09949 -0.11188,-1.48596 -0.58773,-2.4643 -1.0573,-2.17409 -1.25485,0.77555 -5.10951,-5.56377 -4.23928,-6.97185 0.41353,-0.6691 -0.11675,-0.8709 -1.19805,-0.45596 -1.27483,0.4892 -1.93992,0.0305 -1.93992,-1.33809 0,-1.14537 -0.53427,-1.7523 -1.18729,-1.34872 -1.47689,0.91277 -4.05639,-3.64018 -2.83124,-4.99729 0.49144,-0.54438 0.25414,-0.62453 -0.52733,-0.17813 -1.69003,0.9654 -4.73297,-2.2939 -3.70082,-3.96396 0.39522,-0.63945 -0.51617,-1.48552 -2.0253,-1.88017 -1.50911,-0.39464 -2.4062,-1.05518 -1.99351,-1.46787 0.86441,-0.86441 -4.78686,-6.84882 -6.46756,-6.84882 -0.61568,0 -1.52076,-0.64941 -2.01131,-1.44314 -0.57174,-0.925067 -0.34073,-1.102487 0.64351,-0.494197 1.16475,0.719857 1.15097,0.33338 -0.0571,-1.601 -0.87585,-1.40247 -1.9672,-2.31835 -2.42521,-2.03529 -1.31556,0.81307 -5.02861,-3.88708 -3.9821,-5.04072 0.51713,-0.57005 0.23313,-0.62938 -0.6311,-0.13183 -0.91694,0.52789 -1.88249,0.0937 -2.31849,-1.04241 -0.41092,-1.07089 -1.17553,-1.6823 -1.69911,-1.35871 -0.52357,0.32359 -1.95806,-0.52339 -3.18775,-1.88218 -1.22962,-1.35878 -1.84512,-2.47052 -1.36771,-2.47052 0.47741,0 0.14271,-0.78471 -0.74376,-1.7438 -0.88649,-0.95909 -1.98863,-1.51623 -2.4492,-1.23809 -0.46057,0.27814 -2.00744,-0.98176 -3.4375,-2.79977 -1.43005,-1.81802 -2.6087,-2.80775 -2.61923,-2.19942 -0.01,0.60834 -0.4324,0.54199 -0.9375,-0.14746 -0.5051,-0.68945 -4.17938,-3.38476 -8.16507,-5.98959 -3.9857,-2.60482 -7.53765,-5.4942 -7.89324,-6.42082 -0.36734,-0.95729 -1.69115,-1.4116 -3.06578,-1.05213 -1.6556,0.43295 -2.41927,-0.005 -2.41927,-1.38813 0,-1.11144 -0.42188,-1.93149 -0.9375,-1.82234 -1.41723,0.3 -5.72608,-1.72463 -7.58929,-3.56601 -0.9085,-0.89784 -2.45538,-1.63244 -3.43753,-1.63244 -1.75629,0 -2.25011,-1.29285 -1.90979,-5 0.0946,-1.03125 -0.66251,-0.46875 -1.68261,1.25 -1.61495,2.72101 -1.86045,2.8099 -1.89901,0.6875 -0.028,-1.53828 -0.48178,-1.99943 -1.23016,-1.25 -0.65222,0.65312 -1.49735,10.75855 -1.87808,22.4565 -0.38072,11.69795 -1.22332,23.12081 -1.87242,25.38412 -0.64912,2.26332 -0.8688,4.926637 -0.48819,5.918497 0.38061,0.99185 0.10162,1.80338 -0.61994,1.80338 -0.72159,0 -1.1182,1.00615 -0.88137,2.23587 0.62831,3.26257 -1.60667,14.46683 -3.97382,19.92128 -1.12611,2.59481 -2.13386,5.28035 -2.23943,5.96785 -0.74378,4.84309 -2.35879,9.375 -3.34092,9.375 -0.64213,0 -0.84178,0.52704 -0.44367,1.1712 0.75905,1.22817 -5.51656,15.39947 -7.1388,16.12046 -0.51562,0.22918 -0.9375,1.23334 -0.9375,2.23149 0,1.88651 -3.17585,7.38149 -5.93279,10.26512 -0.8746,0.9148 -1.30026,2.13239 -0.94591,2.70574 0.35435,0.57335 0.0476,1.24134 -0.68159,1.48441 -0.72921,0.24308 -1.46653,1.2755 -1.63848,2.29427 -0.17195,1.01877 -1.26443,3.64882 -2.4277,5.84456 -2.14632,4.05121 -1.45518,9.10319 1.49477,10.92636 0.69989,0.43255 1.00204,1.49131 0.67145,2.35281 -0.33059,0.86149 0.46891,2.71485 1.77668,4.11857 1.30775,1.40371 2.78478,3.83471 3.2823,5.40222 0.49751,1.56751 1.83195,3.93314 2.96542,5.25694 1.13346,1.3238 2.06085,2.92839 2.06085,3.56575 0,1.1814 16.38939,17.5101 17.57517,17.5101 1.07297,0 8.54105,5.49194 10.03344,7.37847 0.76293,0.9644 2.03496,1.35308 2.82676,0.86373 0.79179,-0.48936 1.43963,-0.29405 1.43963,0.43402 0,0.72808 1.08482,1.32378 2.41071,1.32378 1.3259,0 3.25446,0.84375 4.28571,1.875 1.03125,1.03125 3.04019,1.875 4.46429,1.875 1.42411,0 2.58929,0.65625 2.58929,1.45834 0,0.80207 0.35256,1.10576 0.78347,0.67485 0.43093,-0.43092 2.39968,0.0522 4.375,1.07376 1.97534,1.02149 3.59153,1.61005 3.59153,1.30792 0,-0.30213 2.95312,0.58573 6.5625,1.97302 6.69986,2.57515 12.78496,4.1221 21.41281,5.44358 3.47585,0.53238 4.4674,1.12582 3.49906,2.09415 -1.73976,1.73977 -24.97383,2.44642 -27.95623,0.85029 -1.53422,-0.82109 -2.26814,-0.78094 -2.26814,0.12409 0,0.92981 -0.79993,0.90985 -2.62229,-0.0654 -1.44225,-0.77187 -4.46506,-1.63197 -6.71735,-1.91132 -2.25227,-0.27935 -5.71287,-1.35165 -7.69021,-2.38288 -1.97734,-1.03122 -4.21977,-1.87842 -4.98321,-1.88266 -0.76344,-0.004 -3.38956,-1.36595 -5.83584,-3.02604 -2.44627,-1.66008 -4.77476,-2.69133 -5.17444,-2.29166 -0.39966,0.39968 -0.72666,0.0373 -0.72666,-0.80541 0,-0.84267 -0.48732,-1.23093 -1.08294,-0.86282 -0.59562,0.36812 -2.1425,-0.50698 -3.4375,-1.94467 -1.29501,-1.43769 -3.67736,-3.11975 -5.29413,-3.7379 -1.82552,-0.69798 -2.67867,-1.80382 -2.25115,-2.91789 0.45655,-1.18977 0.0819,-1.56124 -1.11241,-1.10294 -0.99241,0.38083 -2.1449,-0.20566 -2.56732,-1.30647 -0.42158,-1.09864 -1.27007,-1.6863 -1.88553,-1.30593 -0.61546,0.38031 -1.11902,-0.18541 -1.11902,-1.25724 0,-1.07182 -0.84375,-1.94877 -1.875,-1.94877 -1.03125,0 -1.875,-0.49426 -1.875,-1.09835 0,-0.60409 -1.74351,-1.82054 -3.87449,-2.70321 -4.97111,-2.0591 -13.0018,-9.26916 -16.33971,-14.67003 l -2.60286,-4.21151 -3.93833,3.81716 c -2.16607,2.09945 -5.75098,4.17971 -7.96647,4.62281 -2.21548,0.44309 -4.02814,1.21103 -4.02814,1.70652 0,0.49548 -2.95312,0.99251 -6.5625,1.10448 -5.64834,0.17523 -7.17194,-0.31987 -10.9375,-3.55421 -2.40625,-2.06679 -5.31337,-3.75911 -6.46026,-3.76072 -1.1469,-0.001 -2.99803,-0.3532 -4.11363,-0.78129 -1.26656,-0.48603 -1.89178,-0.19485 -1.66472,0.77529 0.36247,1.54879 -3.22196,4.15376 -11.50043,8.35787 -5.29673,2.68988 -26.3713,3.18917 -27.2194,0.64487 -0.2778,-0.83339 -1.00042,-1.20912 -1.60582,-0.83495 -1.74275,1.07706 -8.72709,-5.844 -10.72655,-10.62937 -2.1966,-5.2572 -2.84018,-15.14237 -1.41671,-21.76046 2.22722,-10.35504 9.14196,-22.0249 13.05041,-22.0249 0.91141,0 1.65711,-0.6281 1.65711,-1.39579 0,-0.76769 1.00099,-1.13402 2.22441,-0.8141 1.22343,0.31994 2.91302,-0.15545 3.75463,-1.0564 1.93479,-2.07119 19.19377,-1.68381 21.81256,0.48959 0.99738,0.82775 2.21413,1.1043 2.70388,0.61455 0.48975,-0.48975 1.28175,-0.34424 1.75998,0.32335 0.47825,0.66759 2.08114,1.88795 3.56199,2.71191 2.87066,1.59729 3.08845,0.87584 1.11261,-3.68561 -0.52113,-1.20313 -0.64162,-2.9847 -0.26772,-3.95905 0.37389,-0.97435 -0.13364,-2.0837 -1.12786,-2.46523 -0.99422,-0.38151 -1.68294,-1.13118 -1.5305,-1.66593 0.15243,-0.53477 -0.42464,-2.23792 -1.28239,-3.78479 -0.85775,-1.54688 -1.11788,-2.82111 -0.57806,-2.83164 0.53981,-0.01 0.35683,-0.4324 -0.40662,-0.9375 -0.76343,-0.5051 -2.37815,-2.88711 -3.58823,-5.29336 -1.21008,-2.40625 -2.93177,-5.21875 -3.82597,-6.25 -0.89421,-1.03125 -1.81075,-2.67188 -2.03677,-3.64584 -0.54455,-2.34656 -3.93629,-6.0756 -5.01206,-5.51049 -0.46813,0.24592 -1.20445,-0.12462 -1.63628,-0.82328 -1.41132,-2.28357 -8.71186,-1.33522 -13.20026,1.71473 -4.09904,2.78537 -6.50566,6.43052 -9.78944,14.82738 -1.67931,4.29415 -4.8291,4.43875 -6.40491,0.29405 -0.92638,-2.43653 -0.52598,-4.65656 1.78041,-9.87171 3.81935,-8.63623 13.07301,-16.30305 21.1369,-17.5123 5.95198,-0.89255 12.0897,0.0786 12.0897,1.91297 0,0.61296 0.84375,1.11449 1.875,1.11449 1.03125,0 1.875,0.80585 1.875,1.79076 0,0.98493 1.125,2.14783 2.5,2.58424 1.375,0.43641 2.5,1.36996 2.5,2.07457 0,0.7046 1.11734,2.70157 2.48296,4.43769 1.36564,1.73611 2.17619,3.65296 1.80124,4.25966 -0.37496,0.60669 -0.11675,1.10308 0.57383,1.10308 1.25616,0 3.17747,3.03886 7.11277,11.25 1.15324,2.40625 2.8709,5.87112 3.81704,7.69971 0.94614,1.8286 1.377,4.21923 0.95747,5.3125 -0.41953,1.09329 -0.23385,1.98779 0.41262,1.98779 1.42433,0 1.67582,1.23005 1.9806,9.68717 0.13006,3.60919 0.7521,6.56232 1.38231,6.5625 0.6302,1.8e-4 0.77571,0.37045 0.32334,0.82282 -0.45237,0.45237 -0.30107,1.45076 0.33622,2.21865 0.6373,0.7679 1.42991,3.06965 1.76138,5.11501 0.33145,2.04537 0.71367,4.0001 0.84937,4.34385 0.13571,0.34375 0.15894,1.5366 0.0516,2.65079 -0.123,1.27696 1.94488,3.0317 5.59423,4.74708 7.94805,3.73603 13.3039,2.06999 16.83402,-5.23653 3.08263,-6.3803 3.07934,-7.33415 -0.0464,-13.46114 -1.38903,-2.72261 -2.26615,-4.9502 -1.9492,-4.9502 0.31695,0 -0.20281,-1.50171 -1.15503,-3.33713 -1.26527,-2.43878 -1.37998,-3.99363 -0.42617,-5.77585 0.81247,-1.5181 0.83565,-2.14855 0.0614,-1.67005 -0.68405,0.42277 -1.56626,-0.0719 -1.96047,-1.09915 -0.39421,-1.0273 -0.0312,-1.87643 0.80651,-1.88696 1.12029,-0.0141 1.14301,-0.2621 0.0859,-0.9375 -0.79056,-0.5051 -1.76804,-2.88711 -2.17217,-5.29336 -0.40414,-2.40625 -1.00842,-5.78125 -1.34284,-7.5 -1.69116,-8.69154 -1.7935,-12.56819 -0.30826,-11.67678 1.16542,0.69948 1.17531,0.4917 0.0433,-0.90918 -2.05492,-2.54299 -1.3464,-37.901787 0.81156,-40.501977 0.85825,-1.03412 1.24084,-2.71312 0.8502,-3.73111 -0.39064,-1.01799 -0.27251,-2.12143 0.26249,-2.45208 0.53501,-0.33065 0.81543,-2.59867 0.62317,-5.04003 -0.19211,-2.44137 0.17168,-4.43884 0.80858,-4.43884 0.63691,0 0.83148,-0.85091 0.4324,-1.89091 -0.39909,-1.04002 -0.0314,-2.72752 0.81728,-3.75 0.8486,-1.0225 1.1239,-1.85909 0.61179,-1.85909 -0.51211,0 -0.30461,-0.75488 0.4611,-1.67751 0.76571,-0.92263 1.03569,-2.03404 0.59993,-2.46979 -0.43575,-0.43576 -0.0808,-1.64963 0.7889,-2.69749 0.86965,-1.04787 1.2903,-1.90521 0.93477,-1.90521 -0.35554,0 -0.121,-2.10938 0.52114,-4.6875 0.64215,-2.57813 1.30186,-5.25 1.46601,-5.9375 0.16415,-0.6875 0.74344,-1.9624 1.28731,-2.83313 0.54388,-0.87071 1.26484,-3.12071 1.60213,-5 0.3373,-1.87927 1.14211,-3.95125 1.78849,-4.60437 2.27376,-2.29751 1.30172,-5.28071 -1.63728,-5.02479 -1.54687,0.1347 -3.33319,-0.0536 -3.96957,-0.41839 -0.6364,-0.3648 -4.65988,-0.7833 -8.94108,-0.92998 -4.28119,-0.14668 -8.40112,-0.64812 -9.15541,-1.11429 -0.75429,-0.46618 -1.37144,-0.18303 -1.37144,0.62924 0,1.09373 -0.43515,1.11568 -1.67751,0.0846 -0.92263,-0.76572 -2.03404,-1.03569 -2.46979,-0.59993 -0.43576,0.43575 -1.64962,0.0808 -2.69749,-0.7889 -1.58315,-1.31391 -1.90521,-1.21249 -1.90521,0.59992 0,1.68291 -0.38316,1.86311 -1.67751,0.7889 -0.92263,-0.76571 -2.04125,-1.02846 -2.48583,-0.5839 -0.44457,0.44457 -3.48656,0.96846 -6.75998,1.16419 -6.65517,0.39793 -6.84965,0.43748 -16.92738,3.44295 -3.97414,1.1852 -7.91164,2.0125 -8.75,1.83843 -2.49415,-0.51782 -17.10165,2.77648 -27.08055,6.10723 -11.92302,3.97967 -37.8519,17.53754 -41.31875,21.60504 -0.34375,0.4033 -2.4074,1.83665 -4.58587,3.18522 -4.83168,2.991 -25.65158,22.00616 -24.90844,22.74929 0.29299,0.29299 -1.28478,2.3147 -3.50613,4.49267 -6.24897,6.126947 -11.89632,14.104447 -17.65791,24.943737 -1.74936,3.29108 -3.60636,5.72068 -4.12667,5.3991 -0.5203,-0.32156 -1.03205,0.55751 -1.1372,1.9535 -0.10513,1.39599 -1.09708,3.20055 -2.20426,4.01015 -1.10718,0.80959 -2.169577,2.30031 -2.360877,3.31274 -0.75085,3.9735 -3.69973,8.5966 -5.00793,7.85115 -0.75883,-0.43241 -0.97266,-0.33585 -0.47515,0.21459 0.9393,1.03923 -2.68437,8.15001 -4.15328,8.15001 -0.45908,0 -1.14369,1.1816 -1.52136,2.62577 -0.43699,1.67109 -1.24193,2.28258 -2.21392,1.68187 -0.9962,-0.61569 -1.20536,-0.42307 -0.60153,0.55398 0.50917,0.82384 0.42094,2.17638 -0.19604,3.00563 -0.617,0.82926 -1.07288,2.3515 -1.01307,3.38275 0.0597,1.03125 -0.74943,2.61984 -1.79831,3.5302 -1.04887,0.91035 -1.20392,1.29904 -0.34455,0.86372 0.85938,-0.43531 1.5625,-0.26465 1.5625,0.37925 0,1.7554 -3.22456,4.0856 -4.24357,3.06658 -0.48872,-0.4887 -0.5174,0.0788 -0.0637,1.26085 0.76392,1.99077 -0.52204,2.80081 -3.59809,2.26645 -0.56673,-0.0985 -0.67416,0.39745 -0.23873,1.10197 0.43543,0.70454 1.74286,1.29887 2.90541,1.32073 1.95863,0.0369 1.95466,0.16056 -0.0544,1.6861 -1.19243,0.90549 -1.90598,1.90842 -1.58565,2.22875 0.32032,0.32032 -0.47156,3.46595 -1.75974,6.99026 -1.28819,3.52433 -2.02776,6.72224 -1.64351,7.1065 0.38425,0.38425 0.0747,0.69864 -0.68792,0.69864 -0.76261,0 -1.16991,1.125 -0.90511,2.5 0.26481,1.375 -0.0866,2.5 -0.781,2.5 -0.69436,0 -0.9054,1.125 -0.469,2.5 0.43641,1.375 0.33369,2.5002 -0.22826,2.50044 -0.56196,2.4e-4 -1.13691,2.09855 -1.27768,4.66291 -0.15076,2.74626 -1.14799,5.31476 -2.42642,6.24958 -1.19373,0.87288 -1.53538,1.58707 -0.75921,1.58707 0.77618,0 1.32648,1.125 1.22291,2.5 -0.10358,1.375 -0.57846,2.5 -1.05529,2.5 -0.47684,0 -0.57498,1.1166 -0.21809,2.48132 0.35688,1.36473 0.22832,3.4741 -0.2857,4.6875 -0.51402,1.2134 -0.87473,5.18258 -0.80159,8.82039 0.0731,3.63783 -0.36488,6.30653 -0.97339,5.93044 -0.60851,-0.37608 -0.84709,1.14752 -0.53018,3.38579 0.83554,5.90119 1.5298,7.4522 2.9444,6.57792 2.35624,-1.45624 6.69632,-2.19386 21.26353,-3.61391 3.78125,-0.3686 6.875,-0.75561 6.875,-0.86001 0,-0.10438 3.65625,-0.37509 8.124997,-0.60149 4.46875,-0.22641 8.40625,-0.52996 8.75,-0.67455 0.95264,-0.40069 19.97375,-1.12985 38.125,-1.4615 9.02006,-0.1648 16.6586,-0.85305 17.16836,-1.5469 0.59564,-0.81074 0.92509,-0.77433 0.9375,0.10362 0.0222,1.57008 3.62827,1.52855 6.21734,-0.0716 1.0869,-0.67174 1.94654,-0.5978 2.20914,0.19 0.23644,0.7093 1.87634,1.01312 3.64422,0.67517 1.95694,-0.37408 3.64384,0.0637 4.31225,1.11918 0.84467,1.33375 1.10674,1.15699 1.13619,-0.76636 0.0317,-2.07369 0.24491,-2.18027 1.25,-0.625 0.88049,1.36246 1.21695,1.42771 1.23086,0.23872 0.0112,-1.00316 0.6237,-1.25254 1.58164,-0.6445 0.85938,0.54548 12.67188,0.83305 26.25,0.63904 19.57513,-0.27969 24.69146,-0.0168 24.70664,1.2695 0.0151,1.28454 0.22639,1.29582 1.01466,0.0542 1.16235,-1.83076 7.90946,-1.63808 9.2787,0.26497 0.62075,0.86275 1.31124,0.7232 2.04368,-0.41305 0.78367,-1.21576 2.51465,-1.48708 5.9375,-0.93067 2.65722,0.43195 6.9407,0.75951 9.51882,0.72791 3.01541,-0.037 4.69433,0.51797 4.70664,1.55568 0.0144,1.21605 0.25332,1.24475 0.9705,0.11662 1.16099,-1.82629 2.82242,-0.75026 5.11816,3.31475 1.24293,2.20081 1.32906,3.20281 0.30471,3.54426 -0.78545,0.26182 -1.11013,0.99049 -0.72152,1.61927 0.3886,0.62877 0.12851,1.14323 -0.57799,1.14323 -0.7065,0 -0.98026,0.79294 -0.60836,1.76208 0.91911,2.39516 -4.09929,3.88045 -6.46824,1.91439 -1.51315,-1.25579 -1.70591,-1.17118 -1.07535,0.47205 0.58264,1.51832 0.13649,1.88043 -1.84639,1.49857 -1.43808,-0.27692 -2.61468,-0.007 -2.61468,0.59982 0,0.60684 -1.54687,0.96601 -3.4375,0.79815 -1.89062,-0.16785 -5.26862,0.0885 -7.50666,0.56976 -2.23804,0.48121 -4.36543,0.39556 -4.72753,-0.19034 -0.36211,-0.58588 -1.49048,-0.74595 -2.50752,-0.35568 -1.35206,0.51883 -1.65195,0.0841 -1.11559,-1.61709 0.69303,-2.1981 0.65433,-2.2031 -0.70021,-0.0904 -1.22748,1.91449 -3.12956,2.20759 -13.21939,2.03705 -7.79474,-0.13175 -11.79209,-0.67736 -11.80474,-1.61125 -0.0125,-0.90268 -0.38467,-0.83605 -1.03245,0.18472 -1.15808,1.8249 -9.02446,1.56771 -10.60607,-0.34677 -0.67478,-0.81678 -1.24004,-0.74553 -1.63103,0.20559 -0.4083,0.99324 -1.76776,1.12021 -4.27983,0.39976 -2.02482,-0.58073 -3.68148,-0.59742 -3.68148,-0.0371 0,0.56033 -11.53125,0.9931 -25.625,0.96173 -17.6017,-0.0391 -25.63099,-0.48331 -25.64414,-1.4185 -0.01,-0.74883 -0.514,-0.58006 -1.11881,0.37502 -0.81089,1.28048 -4.44817,1.77288 -13.85047,1.875 -7.01293,0.0761 -13.02829,-0.3107 -13.36747,-0.85971 -0.33917,-0.54901 -1.47603,-0.285 -2.52635,0.58669 -1.70692,1.41662 -9.3196,2.32405 -23.179957,2.76305 -2.57796,0.0816 -4.68734,0.44877 -4.6875,0.81584 -1.6e-4,0.36705 -1.82842,0.63246 -4.0628,0.58981 -2.23437,-0.0426 -5.04687,0.37994 -6.25,0.9391 -1.4514,0.67456 -2.1875,0.49711 -2.1875,-0.52731 0,-1.20087 -0.33333,-1.21064 -1.5,-0.044 -0.825,0.825 -3.075,1.5 -5,1.5 -1.925,0 -3.57554,0.70312 -3.66787,1.5625 -0.44306,4.12388 0.37881,13.35108 1.61364,18.11653 1.09377,4.22108 1.02268,5.73759 -0.34819,7.42745 -1.08408,1.33633 -1.157,1.78385 -0.19673,1.20734 1.00799,-0.60516 1.7849,0.26795 2.28911,2.57255 0.41979,1.91875 1.41414,5.17613 2.20968,7.23863 0.79554,2.0625 1.48059,4.03125 1.52234,4.375 0.25301,2.08315 2.70426,8.13222 6.83822,16.875 2.60062,5.5 6.14455,13.09375 7.87539,16.875 1.73083,3.78125 4.30921,8.21322 5.72975,9.84885 1.42052,1.63561 2.30402,3.42486 1.96332,3.97612 -0.34069,0.55125 -0.0386,1.36126 0.67134,1.80003 0.70992,0.43876 0.91344,1.40828 0.45225,2.15451 -0.48864,0.79062 -0.25926,0.99876 0.5497,0.49879 1.47394,-0.91094 6.095367,5.04105 4.867507,6.2689 -0.91836,0.91837 1.97191,4.11172 3.10304,3.42845 0.46614,-0.28158 1.23616,0.71257 1.71117,2.20921 0.47502,1.49665 3.02435,4.9698 5.66518,7.71812 2.64084,2.74832 4.45577,5.55638 4.0332,6.24012 -0.42258,0.68375 -0.14714,0.85925 0.6121,0.39002 1.19775,-0.74025 4.3805,3.06664 3.64937,4.36503 -0.14768,0.26226 -0.0441,0.34621 0.23012,0.18655 0.97818,-0.5695 6.22176,6.40418 5.58727,7.4308 -0.3557,0.57555 0.0982,0.89187 1.00868,0.70297 0.91047,-0.18891 1.50085,0.40146 1.31194,1.31194 -0.1889,0.91047 0.1512,1.34969 0.7558,0.97602 1.51113,-0.93393 6.71617,4.8 5.53661,6.0992 -0.52191,0.57485 -0.25264,0.64477 0.59841,0.15537 1.96298,-1.12883 11.81364,7.8052 10.72023,9.72266 -0.43637,0.76524 -0.3382,0.97945 0.21815,0.47604 0.55635,-0.50343 2.19341,0.41807 3.63791,2.04776 1.4445,1.62967 3.89199,3.3451 5.43886,3.81204 1.54688,0.46692 2.8125,1.36601 2.8125,1.99796 0,0.63194 1.82813,1.91732 4.0625,2.8564 2.23438,0.93907 5.8153,3.33725 7.9576,5.32927 7.56141,7.03098 9.68539,8.67349 8.72454,6.74687 -0.51431,-1.03125 0.18229,-0.60938 1.54799,0.9375 1.36571,1.54687 3.09606,2.8125 3.84523,2.8125 0.74918,0 1.36214,0.49426 1.36214,1.09835 0,0.60408 1.68035,1.79437 3.73411,2.64507 2.05377,0.85069 3.3731,2.13085 2.93187,2.84478 -0.45572,0.73736 -0.19857,0.92497 0.5953,0.43433 0.76865,-0.47505 2.54305,0.28179 3.94313,1.68188 1.40008,1.40007 3.36955,2.54559 4.37662,2.54559 1.00706,0 2.44152,1.14075 3.18771,2.53501 0.74619,1.39425 1.81836,2.24967 2.38264,1.90095 0.90576,-0.5598 2.51506,0.4941 8.53612,5.59015 0.85938,0.72735 1.5625,0.98722 1.5625,0.5775 0,-0.40973 1.6875,0.25187 3.75,1.47022 2.0625,1.21835 3.75,2.6564 3.75,3.19568 0,0.53926 0.73769,0.98049 1.6393,0.98049 0.90161,0 2.84684,1.125 4.32274,2.5 1.47589,1.375 3.5507,2.5 4.6107,2.5 1.05999,0 1.92726,0.4861 1.92726,1.08021 0,2.41464 31.33216,16.53362 47.37225,21.34701 21.47055,6.44301 22.49429,7.25486 6.37775,5.05773 z m 21.875,-46.36447 c 6.1875,-2.12375 14.44086,-5.44444 18.3408,-7.37931 3.89992,-1.93484 7.41555,-3.19315 7.8125,-2.79621 0.39694,0.39694 0.7217,0.15673 0.7217,-0.5338 0,-1.31327 13.68247,-8.61044 15.3125,-8.1665 0.51562,0.14044 0.9375,-0.30716 0.9375,-0.99466 0,-0.6875 0.84375,-1.25 1.875,-1.25 1.03125,0 1.875,-0.5957 1.875,-1.32378 0,-0.72807 0.5625,-0.97612 1.25,-0.55122 0.6875,0.4249 1.25,0.17685 1.25,-0.55122 0,-0.72808 0.84375,-1.32378 1.875,-1.32378 1.03125,0 1.875,-0.44123 1.875,-0.98049 0,-0.96289 5.67047,-4.71677 8.125,-5.3788 0.6875,-0.18542 1.99847,-1.08561 2.91327,-2.00041 0.9148,-0.9148 2.26267,-1.29284 2.99527,-0.84006 1.27602,0.78862 -1.6268,-4.86278 -12.28914,-23.92524 -2.6918,-4.8125 -5.99809,-11.28125 -7.3473,-14.375 -1.3492,-3.09375 -2.7909,-5.90625 -3.20377,-6.25 -0.69235,-0.57644 -1.55518,-2.51206 -2.50739,-5.625 -0.2103,-0.6875 -1.16935,-2.03697 -2.13121,-2.99885 -0.96187,-0.96186 -1.48759,-2.7479 -1.16827,-3.96898 0.39573,-1.51326 0.0286,-2.00833 -1.15294,-1.55491 -1.00889,0.38714 -1.79883,-0.17446 -1.88977,-1.34352 -0.086,-1.10482 -0.29687,-2.57124 -0.46875,-3.25874 -0.17187,-0.6875 -0.38281,-1.8125 -0.46875,-2.5 -0.219,-1.75203 -5.8432,-1.55684 -16.58505,0.5756 -15.55595,3.08811 -17.12302,3.16474 -17.73262,0.86705 -0.36693,-1.383 -0.59659,-1.11821 -0.69358,0.79965 -0.0797,1.57701 -0.84812,2.76757 -1.7075,2.64569 -2.26222,-0.32084 -9.66827,1.53582 -9.79581,2.45576 -0.0596,0.42969 -0.3141,4.4375 -0.56561,8.90625 -1.12315,19.95547 -1.90945,29.59677 -2.99485,36.72122 -0.64132,4.20958 -1.50069,11.23672 -1.90972,15.61587 -0.40901,4.37916 -1.21236,8.87916 -1.7852,10 -0.57283,1.12085 -1.42795,5.13166 -1.90023,8.91291 -0.4723,3.78125 -1.04832,8.26159 -1.28002,9.95631 -0.23171,1.69473 -0.14393,3.8041 0.19507,4.6875 1.05327,2.74479 10.38475,1.79025 22.22387,-2.27333 z m -9.375,-113.69425 c 0,-0.72808 0.45908,-1.04006 1.02015,-0.69328 0.56109,0.34676 3.23296,-0.13201 5.9375,-1.06396 3.10869,-1.07122 5.43836,-1.26425 6.33388,-0.52481 0.92437,0.76326 1.65145,0.5574 2.09272,-0.59253 0.38059,-0.99181 2.49363,-1.81 4.83348,-1.87156 11.76526,-0.30961 13.07199,-1.51235 9.06734,-8.34578 -1.77585,-3.03025 -2.90721,-6.02994 -2.51412,-6.66595 0.39307,-0.63602 -0.13105,-1.48094 -1.16473,-1.8776 -1.03367,-0.39666 -1.78336,-1.15872 -1.66596,-1.69347 0.26209,-1.19388 -2.0083,-6.90248 -5.23382,-13.15979 -1.32898,-2.57813 -2.15236,-4.6875 -1.82975,-4.6875 0.32261,0 -0.48433,-1.76095 -1.7932,-3.91321 -1.30888,-2.15227 -2.08418,-4.68351 -1.72289,-5.625 0.36128,-0.94149 -0.10637,-1.7204 -1.03936,-1.73093 -1.30885,-0.0148 -1.26803,-0.29587 0.17876,-1.23086 1.61549,-1.044 1.58216,-1.21436 -0.24072,-1.23086 -1.43892,-0.013 -1.96172,-0.81889 -1.63428,-2.51914 0.2648,-1.375 -0.0819,-2.5 -0.77054,-2.5 -0.6886,0 -0.90436,-0.5625 -0.47946,-1.25 0.4249,-0.6875 0.2292,-1.25 -0.43489,-1.25 -0.66408,0 -2.19175,-3.23438 -3.3948,-7.1875 -2.98508,-9.80869 -3.64771,-10.12425 -3.80602,-1.81253 -0.0746,3.91877 -0.50303,13.03128 -0.95198,20.25003 -2.6573,42.72785 -2.98557,52.5 -1.76363,52.5 0.53697,0 0.97632,-0.5957 0.97632,-1.32377 z M 234.72841,209.97231 c 4.16935,-0.34672 13.76866,-7.98983 13.76866,-10.96282 0,-0.73631 0.84375,-1.66251 1.875,-2.05823 2.84734,-1.09263 2.24476,-6.07079 -1.23547,-10.20682 -8.73935,-10.38613 -25.02742,-10.8004 -29.81614,-0.75833 -1.14036,2.39136 -2.07339,5.45385 -2.07339,6.80552 0,1.35168 -0.48571,2.45759 -1.07936,2.45759 -1.21628,0 0.75682,12.59188 2.20876,14.09582 0.51548,0.53395 2.72113,1.09645 4.90144,1.25 2.1803,0.15355 3.96531,0.76993 3.96667,1.36973 10e-4,0.59981 0.74395,0.4752 1.65019,-0.27691 0.90624,-0.75212 3.53138,-1.52411 5.83364,-1.71555 z m 73.22875,-42.97018 c -0.36258,-1.99946 0.27627,-3.98927 1.75581,-5.46881 1.27918,-1.27918 2.01089,-2.64065 1.62603,-3.02551 -0.38487,-0.38487 0.24127,-1.06085 1.39141,-1.5022 1.3672,-0.52464 1.83272,-1.61672 1.34467,-3.15442 -0.45553,-1.43531 -0.14527,-2.35197 0.79609,-2.35197 0.84841,0 1.19,-0.35256 0.75909,-0.78348 -0.43091,-0.43092 0.15489,-2.5403 1.30177,-4.6875 1.14689,-2.14721 2.17914,-4.3259 2.29389,-4.84152 0.11475,-0.51563 0.34928,-1.21875 0.52115,-1.5625 0.17188,-0.34375 0.38281,-1.20801 0.46875,-1.92059 0.086,-0.71259 0.71875,-1.69696 1.40625,-2.1875 0.6875,-0.49055 1.40455,-2.27357 1.59345,-3.96227 0.1889,-1.68869 1.03265,-3.5082 1.875,-4.04335 1.12513,-0.7148 1.03398,-0.98818 -0.34345,-1.03017 -1.50597,-0.0459 -1.45469,-0.30218 0.26059,-1.3022 1.17456,-0.68477 1.854,-1.97882 1.50985,-2.87567 -0.34416,-0.89685 0.008,-4.3976 0.78032,-7.77944 0.77333,-3.38185 1.62163,-7.75561 1.88512,-9.71949 0.26348,-1.96387 1.12957,-4.3545 1.92464,-5.312497 1.10357,-1.32971 1.07914,-1.74182 -0.10312,-1.74182 -1.05987,0 -1.28363,-1.08513 -0.7088,-3.4375 0.46199,-1.89063 0.82686,-6.8125 0.81084,-10.9375 -0.016,-4.125 0.85181,-13.39674 1.92853,-20.60388 l 1.95768,-13.10387 -2.79645,-1.89613 c -1.53805,-1.04286 -4.41459,-3.51188 -6.3923,-5.48671 -1.97773,-1.97481 -3.2473,-2.68224 -2.82127,-1.57205 0.69782,1.81851 0.29721,1.85028 -4.043,0.32058 -6.72073,-2.36872 -9.64549,-0.93304 -11.51415,5.65195 -0.84908,2.99206 -2.0088,6.56511 -2.57718,7.94011 -1.16975,2.82987 -6.46391,28.15095 -7.00689,33.51274 -0.19565,1.932 -0.77901,7.557 -1.29636,12.499997 -1.00216,9.57513 -0.99291,34.00278 0.0152,40.23726 0.33351,2.0625 1.18164,6.48422 1.88471,9.82606 0.70308,3.34184 0.99323,6.53735 0.64479,7.10113 -0.34844,0.56378 -0.0976,1.35626 0.55734,1.76105 0.65496,0.4048 1.11485,1.7448 1.02197,2.97777 -0.0929,1.23299 0.56799,4.02071 1.46859,6.19496 1.38711,3.3488 2.00069,3.75877 4.01343,2.68158 1.66455,-0.89084 2.20531,-2.21269 1.80602,-4.41464 z M 333.94443,21.186723 c -0.40101,-2.92188 -1.20842,-6.22291 -1.79425,-7.33565 -0.58584,-1.11273 -0.73467,-2.35361 -0.33076,-2.75754 0.40391,-0.40391 -0.86884,-0.44366 -2.82833,-0.0884 -1.95948,0.35533 -3.57727,0.75246 -3.59508,0.88254 -0.0179,0.13006 -1.29612,2.04184 -2.84066,4.24837 -3.5109,5.01564 -3.5509,6.61259 -0.14923,5.95749 1.46247,-0.28165 3.8531,0.14991 5.3125,0.95903 1.4594,0.80911 3.35658,1.32843 4.21595,1.15406 0.85938,-0.17438 1.5625,0.2701 1.5625,0.98774 0,0.71763 0.26471,1.3048 0.58824,1.3048 0.32354,0 0.26015,-2.39063 -0.14088,-5.3125 z M 188.18457,441.81531 c -1.20312,-0.27467 -2.1875,-1.21473 -2.1875,-2.08901 0,-0.87429 -1.14961,-2.62999 -2.5547,-3.90158 -2.25237,-2.03837 -2.46907,-3.3077 -1.83124,-10.72612 0.39792,-4.62779 0.76814,-11.1277 0.82274,-14.44427 0.0546,-3.31656 0.64584,-6.7086 1.31385,-7.53786 0.66801,-0.82925 0.87573,-2.05601 0.46158,-2.72612 -0.41415,-0.67012 -0.20283,-1.55842 0.46962,-1.974 0.69073,-0.4269 0.80578,-1.95994 0.26444,-3.52388 -1.11398,-3.21834 -0.99,-14.26621 0.17315,-15.42936 0.43594,-0.43593 0.2301,-1.84364 -0.4574,-3.12824 -0.86668,-1.61941 -0.83056,-2.33565 0.11775,-2.33565 0.75226,0 0.95639,-0.66561 0.4536,-1.47914 -1.5798,-2.55617 -1.63984,-11.55468 -0.0838,-12.54433 1.10764,-0.70442 1.0859,-0.94302 -0.0871,-0.95739 -0.85938,-0.01 -1.5625,-0.73825 -1.5625,-1.61715 0,-1.1579 -2.13996,-1.51603 -7.76984,-1.30034 -5.00932,0.19193 -8.11127,-0.23956 -8.73086,-1.21447 -0.73811,-1.16143 -0.96546,-1.16498 -0.98016,-0.0153 -0.0289,2.26167 -28.92648,0.46983 -33.71003,-2.09024 -3.85646,-2.06391 -4.09124,-1.64826 -3.33586,5.90586 1.02364,10.23691 -0.44523,17.08889 -3.76556,17.56571 -2.03636,0.29243 -3.06108,-0.69978 -4.51829,-4.375 -2.17475,-5.48492 -4.0465,-13.00886 -3.62881,-14.58685 0.15776,-0.596 -0.41161,-3.12725 -1.26528,-5.625 -0.85366,-2.49775 -1.42316,-5.20207 -1.26556,-6.0096 0.1576,-0.80753 -0.29086,-1.82511 -0.9966,-2.26127 -1.67485,-1.03511 -1.65855,-5.31203 0.0224,-5.87234 1.47191,-0.49064 1.456,-0.006 0.67023,-20.39815 -0.49276,-12.78799 -0.19792,-16.17394 1.99933,-22.96062 2.94494,-9.09614 9.6135,-16.59215 16.89986,-18.99688 7.22094,-2.38312 21.70267,-2.29429 25.37504,0.15565 1.71875,1.14664 6.07812,3.90789 9.6875,6.13613 3.60937,2.22823 6.5625,4.55892 6.5625,5.1793 0,0.62037 1.40625,2.35067 3.125,3.84511 1.71875,1.49444 3.125,3.21574 3.125,3.82514 0,0.60938 1.43772,2.99293 3.19493,5.29676 1.75723,2.30384 3.28318,5.36005 3.39102,6.7916 0.10787,1.43155 0.59895,2.60281 1.09136,2.60281 0.96055,0 4.60022,11.39709 6.07311,19.01705 0.58268,3.0145 0.4112,4.84253 -0.48907,5.21381 -0.7625,0.31448 -0.26135,0.62479 1.11365,0.6896 2.0805,0.098 2.18537,0.32114 0.625,1.32954 -1.38824,0.89715 -1.44557,1.21669 -0.22085,1.23086 0.90978,0.01 1.47228,0.93544 1.25,2.05538 -0.22228,1.11992 1.42397,3.97247 3.65835,6.339 4.75811,5.03952 5.1745,7.48751 1.25,7.34901 -2.56983,-0.0907 -2.7787,0.38609 -2.42084,5.52575 0.21541,3.09375 0.6466,6.51926 0.95817,7.61225 0.33657,1.18061 -0.5835,2.59163 -2.26666,3.47616 -1.55825,0.8189 -1.86681,1.21483 -0.68571,0.87984 2.80984,-0.79692 4.10105,1.3993 2.1821,3.7115 -1.14595,1.38079 -1.15413,1.82025 -0.0339,1.82025 0.81226,0 1.13637,0.55088 0.72025,1.22416 -0.41611,0.6733 -0.14828,2.3608 0.59521,3.75 1.03006,1.9247 0.96945,2.53039 -0.2547,2.54498 -1.24626,0.0149 -1.26271,0.23752 -0.0734,0.9931 2.58481,1.6421 0.50496,51.0919 -2.21975,52.77586 -0.77102,0.47653 -1.31164,1.23946 -1.20135,1.6954 0.6813,2.81676 -4.10467,4.71148 -9.04949,3.58259 z M 137.382,332.04083 c 0.61328,-0.37903 1.11507,-0.10737 1.11507,0.60368 0,0.88935 1.05759,0.89073 3.38871,0.005 1.86379,-0.70861 4.67629,-0.96523 6.25,-0.57025 1.57372,0.39497 2.86129,0.21524 2.86129,-0.39943 0,-0.61466 1.40625,-1.11756 3.125,-1.11756 1.71875,0 3.125,0.56106 3.125,1.2468 0,0.78665 0.57668,0.81601 1.5625,0.0795 1.49839,-1.11935 3.02519,-1.13515 13.95856,-0.14453 3.46599,0.31404 5.65665,-0.23233 7.5,-1.87059 1.43217,-1.27282 1.90082,-1.95691 1.04144,-1.52021 -0.9649,0.49033 -1.56866,-0.0709 -1.57862,-1.46726 -0.009,-1.2437 -1.14423,-5.86029 -2.52302,-10.25908 -1.3788,-4.3988 -2.26216,-8.24255 -1.96305,-8.54168 0.29913,-0.29911 -0.55478,-1.64249 -1.89757,-2.98528 -1.34279,-1.34278 -2.10646,-2.98341 -1.69706,-3.64582 0.4094,-0.66242 0.22517,-1.20441 -0.4094,-1.20441 -0.63458,0 -2.7008,-2.23236 -4.59162,-4.96082 -3.47867,-5.01971 -10.48033,-10.12106 -14.98866,-10.9206 -3.83469,-0.68006 -15.37414,4.55164 -18.66452,8.46204 -3.64352,4.32958 -5.74898,15.41805 -5.74898,30.27658 l 0,10.77791 4.50993,-0.57741 c 2.48045,-0.31759 5.0117,-0.88754 5.625,-1.26658 z m -27.63493,-93.08467 c 0,-1.35131 -0.78357,-2.45694 -1.74126,-2.45694 -1.95402,0 -3.64274,-3.36741 -2.56403,-5.1128 0.38657,-0.62546 0.0895,-1.1372 -0.6601,-1.1372 -2.0711,0 -1.05781,-8.74504 1.16403,-10.04602 1.46798,-0.85955 1.51815,-1.137 0.21081,-1.16597 -1.3773,-0.0305 -1.41099,-0.405 -0.17088,-1.89925 0.84959,-1.02367 2.13037,-1.49926 2.8462,-1.05686 0.76229,0.47112 0.92677,0.19804 0.39699,-0.65915 -0.49747,-0.80494 -1.42814,-1.13991 -2.06814,-0.74436 -0.63998,0.39554 -1.20542,0.26409 -1.25651,-0.29211 -0.0511,-0.5562 -0.32449,-2.24857 -0.60755,-3.76079 -0.28306,-1.51224 0.001,-3.06826 0.63143,-3.45784 0.63035,-0.38957 0.89273,-2.10541 0.5831,-3.81299 -0.30964,-1.70756 -0.1301,-3.10595 0.39896,-3.10751 0.52907,-0.001 1.02652,-1.78164 1.10546,-3.9557 0.0806,-2.22004 1.12364,-4.66954 2.37936,-5.58775 1.81188,-1.32488 1.89927,-1.76408 0.46085,-2.31605 -1.75161,-0.67215 -1.91936,-4.12391 -0.60812,-12.51265 1.81137,-11.58834 2.39592,-16.41553 2.15702,-17.8125 -0.14697,-0.85938 0.33974,-1.5625 1.08157,-1.5625 0.89088,0 0.95696,-0.7426 0.1946,-2.1875 -0.63479,-1.20313 -0.91502,-5.84375 -0.62272,-10.3125 0.29229,-4.46875 0.493,-9.95313 0.44603,-12.1875 -0.047,-2.23438 0.49471,-4.0625 1.20374,-4.0625 0.70903,0 1.28916,-1.125 1.28916,-2.5 0,-1.375 0.47221,-2.5 1.04935,-2.5 0.57715,0 1.70691,-1.44315 2.51057,-3.20701 1.1376,-2.49675 2.22017,-3.11964 4.88814,-2.8125 l 3.42694,0.39451 0.10725,10.75125 c 0.059,5.91319 0.44928,11.64247 0.86728,12.73174 0.41798,1.08927 0.0885,2.25367 -0.7323,2.58756 -0.82075,0.3339 -0.92978,0.65086 -0.24228,0.70437 0.69358,0.054 1.14943,3.01914 1.02406,6.66119 -0.12425,3.61014 -0.40552,12.32809 -0.625,19.37323 -0.21948,7.04513 -0.80328,12.81076 -1.29733,12.8125 -0.49404,0.001 -0.5527,0.90368 -0.13035,2.00431 0.42235,1.10064 0.019,2.46402 -0.89635,3.02974 -1.37254,0.84827 -1.37764,1.37395 -0.0291,2.99883 1.38902,1.67368 1.28283,1.97627 -0.70539,2.01003 -2.24992,0.0382 -2.2466,0.11087 0.0859,1.875 1.44335,1.0917 1.769,1.83525 0.80376,1.83525 -1.00224,0 -1.31636,0.79817 -0.82157,2.08756 0.44161,1.15081 0.0809,2.5445 -0.80377,3.10586 -1.01426,0.64357 -1.08635,1.02534 -0.19588,1.03744 0.92405,0.0125 1.19583,1.90993 0.78972,5.513 -0.51845,4.5996 -0.23912,5.6042 1.71604,6.17178 1.86107,0.54025 28.76316,0.35521 41.15887,-0.28312 2.43829,-0.12556 2.51969,-0.57606 1.54852,-8.57002 -0.56379,-4.64063 -1.29398,-10.125 -1.62263,-12.1875 -2.30391,-14.45844 -3.45801,-83.34074 -1.41891,-84.6875 1.02474,-0.67681 1.03754,-1.19819 0.046,-1.875 -1.57947,-1.07814 -1.83785,-5.3125 -0.32417,-5.3125 0.5559,0 0.46215,-1.44286 -0.20834,-3.206377 -0.67041,-1.7635 -1.21899,-6.4981 -1.21899,-10.52132 0,-7.07225 0.17504,-7.46036 5.27554,-11.69711 2.90154,-2.41019 5.72256,-4.10588 6.26894,-3.76819 1.90877,1.17969 4.60871,9.30441 4.62481,13.91714 0.0589,16.857007 -0.64101,24.176107 -2.41929,25.301247 -1.63427,1.03402 -1.61672,1.18878 0.1367,1.20547 1.73424,0.0165 1.99285,1.91565 1.875,13.76911 -0.0817,8.22787 -0.63871,13.75768 -1.3867,13.76914 -0.6875,0.01 -0.40625,0.57305 0.625,1.25003 1.66666,1.0941 1.66666,1.36762 0,2.46172 -1.03125,0.67698 -1.24084,1.23948 -0.46575,1.25 1.35411,0.0184 1.50501,1.90354 2.12781,26.58134 0.11713,4.64045 0.57857,8.43732 1.02544,8.4375 0.44688,1.6e-4 0.8125,1.91644 0.8125,4.25837 0,2.34194 0.38219,5.99819 0.84933,8.125 0.61622,2.80572 0.39325,3.87218 -0.8125,3.88607 -1.34,0.0155 -1.35014,0.2169 -0.0524,1.04031 0.93902,0.59577 1.7414,4.02997 1.92615,8.24402 0.21975,5.01209 0.95185,7.68732 2.39186,8.74028 1.97769,1.44612 2.61436,6.95625 0.80377,6.95625 -0.47393,0 -1.44997,1.6875 -2.16897,3.75 -0.71899,2.0625 -1.88136,3.75 -2.58305,3.75 -0.70168,0 -0.95201,0.84375 -0.55629,1.875 0.49926,1.30106 -0.0866,1.875 -1.91422,1.875 -1.44857,0 -2.63374,0.65625 -2.63374,1.45834 0,0.80207 -0.37013,1.08821 -0.82249,0.63583 -0.45237,-0.45236 -1.43675,-0.31842 -2.1875,0.29764 -1.71602,1.40815 -8.99764,2.6461 -19.49001,3.31348 -4.46875,0.28423 -11.4431,0.74105 -15.49856,1.01513 -4.05547,0.27409 -8.83672,0.089 -10.625,-0.41121 -1.78829,-0.50024 -4.93894,-0.41554 -7.00144,0.18824 -2.0625,0.60377 -5.85937,1.33822 -8.4375,1.6321 -4.00801,0.45686 -4.6875,0.17817 -4.6875,-1.92261 z M 394.81188,222.2947 c -0.61781,-1.62498 -2.01014,-3.29483 -3.09406,-3.71077 -1.53965,-0.59082 -1.97075,-2.70811 -1.97075,-9.67921 0,-8.02113 -0.22109,-8.82841 -2.1875,-7.98745 -7.62698,3.26181 -17.37321,1.9001 -19.1108,-2.67008 -1.99652,-5.25128 1.2339,-10.50176 9.87486,-16.04978 4.22039,-2.70974 7.66998,-5.24099 7.66574,-5.625 -0.004,-0.384 -0.87459,-2.36064 -1.93411,-4.39252 -1.05954,-2.03188 -2.24346,-6.00743 -2.63096,-8.83455 -0.79428,-5.79482 1.18148,-8.76106 6.76983,-10.16365 2.80878,-0.70496 4.03207,0.0472 8.63688,5.31063 2.95055,3.37254 5.37621,6.76615 5.39035,7.54135 0.0141,0.77519 0.88595,2.12337 1.93736,2.99596 1.57409,1.30638 2.40179,1.16389 4.6875,-0.80692 6.3384,-5.46519 11.16026,-8.05688 16.30089,-8.76148 4.873,-0.66791 5.72489,-0.39035 8.11067,2.64269 2.6441,3.36142 2.6466,3.42612 0.30747,7.95465 -1.29707,2.5111 -4.368,6.73889 -6.82432,9.39505 -4.40782,4.7665 -4.8228,7.0456 -1.28286,7.0456 0.99741,0 2.77672,1.125 3.95404,2.5 1.17731,1.375 2.8593,2.5 3.73776,2.5 0.87846,0 1.64623,0.42187 1.70615,0.9375 1.24814,10.7395 0.99777,14.06493 -1.06224,14.10971 -1.19444,0.026 -4.28231,0.35327 -6.86194,0.72734 -2.94563,0.42715 -6.79187,-0.1225 -10.34037,-1.47767 -3.10758,-1.18679 -5.88523,-1.92272 -6.17256,-1.63539 -0.28733,0.28734 -0.65656,3.4623 -0.82051,7.05547 -0.16397,3.59316 -0.76008,6.53304 -1.32472,6.53304 -0.56464,0 -1.02661,0.84375 -1.02661,1.875 0,1.03125 -0.8614,1.875 -1.91423,1.875 -1.05283,0 -2.23801,0.84375 -2.63373,1.875 -1.17127,3.05224 -6.59877,2.30938 -7.88723,-1.07953 z"
     id="path4669"
     inkscape:connector-curvature="0" />
</svg>
